<?xml version="1.0" standalone="no"?>
<!DOCTYPE svg PUBLIC "-//W3C//DTD SVG 20010904//EN"
 "http://www.w3.org/TR/2001/REC-SVG-20010904/DTD/svg10.dtd">
<svg version="1.0" xmlns="http://www.w3.org/2000/svg"
 width="802.000000pt" height="311.000000pt" viewBox="0 0 802.000000 311.000000"
 preserveAspectRatio="xMidYMid meet">

<g transform="translate(0.000000,311.000000) scale(0.100000,-0.100000)"
fill="#000000" stroke="none">
<path d="M4485 2137 c-234 -50 -359 -219 -358 -487 0 -107 16 -177 61 -263 63
-122 177 -197 329 -216 169 -21 318 25 418 130 68 71 99 138 121 261 39 208
-29 408 -169 505 -96 65 -275 96 -402 70z m202 -202 c21 -9 46 -23 56 -33 57
-52 89 -203 69 -324 -24 -136 -85 -207 -187 -216 -83 -7 -122 4 -171 50 -57
52 -78 118 -78 243 0 149 43 244 128 281 42 18 138 17 183 -1z"/>
<path d="M5543 2139 c-260 -43 -395 -251 -362 -556 20 -192 94 -309 235 -375
138 -64 360 -51 423 26 20 24 30 20 39 -16 l8 -33 82 -3 82 -3 0 251 0 250
-200 0 -200 0 0 -95 0 -95 85 0 85 0 0 -35 c0 -62 -60 -95 -175 -95 -107 0
-177 53 -207 154 -7 23 -12 93 -12 156 0 103 3 121 26 171 34 75 76 101 174
107 109 7 174 -30 174 -100 0 -24 3 -28 23 -23 12 3 62 14 111 24 49 11 92 25
96 31 10 17 -7 88 -31 127 -64 104 -269 163 -456 132z"/>
<path d="M6457 2139 c-172 -25 -269 -126 -269 -279 0 -56 6 -82 26 -125 40
-81 102 -121 298 -190 122 -42 158 -69 158 -115 0 -48 -47 -72 -132 -68 -80 4
-116 26 -137 84 -8 21 -15 40 -15 41 -1 0 -50 -9 -111 -21 -100 -20 -110 -24
-113 -45 -6 -43 27 -109 79 -155 154 -138 490 -132 608 11 37 44 61 117 61
182 0 147 -94 235 -320 301 -140 41 -192 90 -156 145 21 32 54 45 112 45 62 0
100 -22 114 -66 10 -29 16 -35 34 -31 11 3 63 13 114 23 103 20 108 27 76 102
-35 84 -112 136 -233 158 -85 15 -110 15 -194 3z"/>
<path d="M1320 2028 l0 -103 225 3 c124 1 225 -1 225 -5 0 -4 -106 -132 -235
-283 l-235 -275 2 -90 3 -90 398 -3 398 -2 -3 102 -3 103 -238 3 -238 2 78 93
c44 50 150 175 236 276 l157 184 0 93 0 94 -385 0 -385 0 0 -102z"/>
<path d="M2540 1656 l0 -476 189 0 c241 0 327 11 411 53 80 40 124 94 140 174
18 86 0 155 -55 210 -24 25 -56 46 -74 49 -40 8 -39 16 4 37 50 24 86 83 92
154 8 84 -11 140 -61 189 -69 66 -118 76 -403 81 l-243 5 0 -476z m451 245
c22 -27 24 -59 7 -96 -15 -32 -67 -47 -156 -43 l-67 3 -3 83 -3 84 101 -4 c93
-3 104 -5 121 -27z m-19 -341 c44 -13 68 -43 68 -85 0 -70 -50 -95 -187 -95
l-83 0 0 95 0 95 83 0 c45 0 99 -5 119 -10z"/>
<path d="M3440 1655 l0 -475 305 0 305 0 0 105 0 105 -185 0 -185 0 0 370 0
370 -120 0 -120 0 0 -475z"/>
<path d="M1883 988 c11 -9 17 -32 20 -68 l3 -55 2 57 c2 42 6 60 20 67 14 8 9
10 -22 11 -34 0 -37 -2 -23 -12z"/>
<path d="M3553 988 c11 -9 17 -32 20 -68 l3 -55 2 62 c2 49 5 62 20 66 9 3 -1
5 -22 6 -34 1 -37 -1 -23 -11z"/>
<path d="M4797 993 c-4 -3 -7 -33 -7 -65 0 -58 0 -58 30 -58 35 0 70 31 70 61
0 30 -18 59 -38 59 -13 0 -12 -3 6 -16 41 -29 16 -94 -36 -94 -20 0 -22 5 -22
50 0 36 5 52 18 59 14 9 15 10 1 11 -9 0 -19 -3 -22 -7z"/>
<path d="M5490 936 c0 -62 1 -66 23 -66 38 0 67 27 67 64 0 39 -14 53 -58 62
l-32 7 0 -67z m54 44 c21 -8 26 -16 26 -44 0 -36 -20 -56 -54 -56 -13 0 -16
12 -16 55 0 58 3 61 44 45z"/>
<path d="M5777 993 c-4 -3 -7 -33 -7 -65 l0 -58 33 1 c30 2 30 2 5 6 -22 3
-28 10 -28 28 0 18 6 25 28 28 l27 4 -28 2 c-23 1 -28 5 -25 23 2 14 13 25 28
29 l25 7 -26 1 c-14 1 -29 -2 -32 -6z"/>
<path d="M2123 930 c0 -36 2 -50 4 -32 4 29 7 32 39 32 19 0 34 4 34 8 0 4
-15 6 -34 4 -31 -4 -35 -1 -39 24 -2 16 -4 0 -4 -36z"/>
<path d="M2407 972 c-23 -25 -21 -58 3 -82 24 -24 48 -25 78 -4 37 26 21 104
-21 104 -6 0 -1 -7 11 -16 26 -18 29 -56 6 -78 -21 -21 -47 -20 -68 3 -23 26
-17 63 14 78 16 8 19 13 9 13 -9 0 -23 -8 -32 -18z"/>
<path d="M2702 948 c-3 -65 24 -91 69 -68 15 9 19 21 17 63 l-1 52 -6 -49
c-11 -89 -67 -87 -74 2 l-3 47 -2 -47z"/>
<path d="M2996 974 c-43 -43 4 -118 62 -98 37 13 38 58 2 61 -25 3 -25 3 -2
-7 25 -11 28 -20 10 -38 -17 -17 -42 -15 -61 6 -23 26 -21 58 5 76 12 9 17 16
11 16 -6 0 -19 -7 -27 -16z"/>
<path d="M3050 986 c0 -2 7 -7 16 -10 8 -3 12 -2 9 4 -6 10 -25 14 -25 6z"/>
<path d="M3272 935 c1 -33 3 -48 5 -32 4 23 9 27 38 27 31 0 34 -3 38 -32 2
-18 4 -4 4 32 0 36 -2 52 -4 37 -4 -25 -8 -28 -36 -25 -23 2 -33 9 -38 28 -5
16 -7 4 -7 -35z"/>
<path d="M3832 976 c7 -8 15 -12 17 -11 5 6 -10 25 -20 25 -5 0 -4 -6 3 -14z"/>
<path d="M4262 937 c-12 -29 -22 -57 -21 -62 0 -6 4 0 9 13 7 16 18 22 38 22
19 0 35 -8 46 -22 9 -13 5 3 -9 36 -14 32 -25 60 -25 62 0 2 -4 4 -8 4 -5 0
-18 -24 -30 -53z m48 -4 c0 -7 -9 -13 -20 -13 -23 0 -24 4 -9 32 9 17 13 18
20 7 5 -8 9 -20 9 -26z"/>
<path d="M4522 933 l1 -58 6 45 6 45 29 -42 c16 -24 30 -43 32 -43 2 0 3 26 2
58 l-1 57 -6 -45 -6 -45 -24 43 c-14 23 -28 42 -33 42 -4 0 -7 -26 -6 -57z"/>
<path d="M5293 930 c0 -36 2 -50 4 -32 2 17 2 47 0 65 -2 17 -4 3 -4 -33z"/>
<path d="M6026 933 c-25 -54 -30 -87 -6 -44 14 28 55 27 74 -1 9 -12 16 -19
16 -16 0 12 -49 118 -54 118 -2 0 -16 -25 -30 -57z m54 -5 c0 -4 -11 -8 -25
-8 -23 0 -24 2 -13 26 11 24 13 25 25 8 7 -10 13 -21 13 -26z"/>
<path d="M6286 974 c-8 -21 0 -33 30 -44 25 -10 32 -34 13 -45 -5 -4 -20 1
-31 12 -21 18 -21 18 -9 -4 14 -26 33 -29 51 -8 15 18 7 43 -17 52 -25 9 -34
25 -21 40 7 9 7 13 0 13 -5 0 -13 -7 -16 -16z"/>
<path d="M6332 976 c7 -8 15 -12 17 -11 5 6 -10 25 -20 25 -5 0 -4 -6 3 -14z"/>
<path d="M3790 950 c0 -6 11 -15 25 -20 26 -10 33 -34 15 -45 -6 -4 -17 -1
-25 5 -9 7 -15 8 -15 2 0 -16 31 -23 46 -11 22 18 17 36 -16 59 -16 12 -30 16
-30 10z"/>
<path d="M2201 904 c0 -11 3 -14 6 -6 3 7 2 16 -1 19 -3 4 -6 -2 -5 -13z"/>
</g>
</svg>
