<?xml version="1.0" standalone="no"?>
<!DOCTYPE svg PUBLIC "-//W3C//DTD SVG 20010904//EN"
 "http://www.w3.org/TR/2001/REC-SVG-20010904/DTD/svg10.dtd">
<svg version="1.0" xmlns="http://www.w3.org/2000/svg"
 width="1554.000000pt" height="646.000000pt" viewBox="0 0 1554.000000 646.000000"
 preserveAspectRatio="xMidYMid meet">

<g transform="translate(0.000000,646.000000) scale(0.100000,-0.100000)"
fill="#000000" stroke="none">
<path d="M3355 4121 c-48 -22 -79 -54 -100 -103 -13 -33 -15 -141 -15 -870 0
-787 1 -835 19 -873 22 -49 69 -91 119 -105 26 -8 343 -10 1029 -8 l991 3 43
30 c23 17 52 48 63 70 21 40 21 47 21 892 l0 851 -30 43 c-16 23 -50 53 -74
66 l-44 23 -991 0 c-942 0 -993 -1 -1031 -19z m910 -321 c137 -6 409 -7 605
-4 l355 7 -345 -350 c-190 -192 -379 -387 -420 -434 -41 -46 -117 -121 -167
-166 -82 -73 -90 -83 -70 -87 148 -32 283 -53 531 -81 107 -12 133 -18 153
-36 32 -31 31 -88 -1 -126 l-24 -28 -671 0 c-669 0 -670 0 -652 20 329 371
592 697 626 779 18 42 16 42 -56 17 -31 -10 -101 -21 -166 -25 -109 -7 -112
-7 -127 16 -52 79 -62 447 -14 505 9 11 32 13 102 8 50 -3 203 -10 341 -15z"/>
<path d="M6005 3718 c-31 -17 -45 -39 -45 -74 0 -87 20 -94 282 -94 l212 0
-247 -248 c-241 -241 -247 -249 -247 -288 0 -68 59 -109 120 -84 16 7 54 40
85 74 31 33 178 183 326 331 243 244 269 274 269 304 0 23 -9 41 -29 62 l-29
29 -339 0 c-225 -1 -345 -4 -358 -12z"/>
<path d="M7322 3705 l-32 -27 0 -179 0 -180 181 -187 c100 -103 194 -193 209
-201 58 -29 120 14 120 83 0 38 -7 47 -165 206 l-165 166 0 82 0 82 184 0
c106 0 197 -5 213 -11 101 -38 143 -160 88 -256 -14 -23 -30 -43 -36 -43 -14
0 -49 -62 -49 -87 0 -12 21 -45 46 -74 52 -59 64 -85 64 -140 0 -80 -51 -147
-128 -169 -84 -23 -83 -24 -267 160 -180 179 -194 187 -248 158 -33 -17 -46
-39 -47 -77 0 -32 16 -51 195 -230 l195 -196 97 1 c133 1 196 25 279 108 82
82 108 148 102 263 -4 67 -10 93 -35 142 l-31 59 32 63 c28 57 31 73 31 154 0
77 -4 98 -27 147 -34 73 -103 142 -176 176 -57 27 -58 27 -328 30 l-271 3 -31
-26z"/>
<path d="M8290 3717 c-49 -25 -50 -28 -50 -560 0 -525 2 -544 45 -561 9 -3
184 -6 389 -6 l373 0 23 25 c16 17 24 37 24 61 0 33 -15 50 -195 230 -174 173
-199 194 -228 194 -44 0 -91 -46 -91 -91 0 -27 16 -48 107 -140 l107 -109
-187 0 -187 0 0 456 0 456 -29 29 c-32 31 -61 36 -101 16z"/>
<path d="M9410 3714 c-119 -32 -217 -116 -274 -234 l-31 -65 0 -260 0 -260 32
-66 c39 -79 130 -169 205 -204 241 -110 527 25 593 280 11 43 15 111 15 250 0
260 -20 334 -121 440 -107 114 -268 159 -419 119z m234 -198 c53 -31 90 -76
111 -135 21 -61 21 -390 0 -450 -30 -85 -110 -151 -202 -166 -94 -15 -208 48
-255 143 -22 45 -23 57 -23 252 l0 205 29 52 c28 52 85 100 141 121 50 19 148
8 199 -22z"/>
<path d="M10351 3714 c-125 -33 -219 -113 -279 -233 l-37 -75 -3 -217 c-3
-176 -1 -229 13 -281 54 -214 254 -347 474 -317 85 12 154 45 220 104 91 83
141 187 141 297 0 49 -4 63 -25 83 -24 25 -25 25 -230 25 l-206 0 -24 -26
c-33 -35 -33 -84 -1 -121 24 -28 26 -28 161 -33 l137 -5 -31 -42 c-103 -142
-308 -144 -405 -4 -41 59 -46 92 -46 296 0 169 3 195 21 235 38 85 108 136
199 147 71 8 133 -12 189 -63 53 -48 75 -91 86 -171 12 -91 90 -129 151 -72
25 23 26 28 22 99 -8 131 -83 255 -197 324 -102 63 -218 80 -330 50z"/>
<path d="M11280 3714 c-165 -45 -299 -203 -308 -364 l-4 -65 194 -192 c173
-172 198 -193 227 -193 45 0 91 46 91 91 0 29 -19 52 -166 200 l-167 168 27
55 c60 123 222 171 342 101 72 -42 107 -100 125 -204 14 -85 56 -115 124 -87
49 21 60 53 47 140 -38 252 -287 416 -532 350z"/>
<path d="M11339 3397 c-26 -20 -41 -56 -34 -86 4 -17 62 -84 165 -186 88 -88
160 -166 160 -173 0 -22 -31 -75 -64 -110 -90 -97 -232 -104 -334 -16 -53 45
-70 77 -87 167 -15 80 -37 107 -87 107 -72 0 -99 -46 -86 -148 16 -135 108
-261 237 -325 62 -30 71 -32 181 -32 109 0 119 2 183 32 120 57 213 177 237
305 6 29 8 65 5 79 -4 16 -78 97 -194 212 -180 180 -189 187 -227 187 -21 0
-46 -6 -55 -13z"/>
<path d="M6298 3052 c-333 -332 -338 -338 -338 -378 0 -31 6 -46 26 -65 l26
-24 350 0 350 0 24 28 c31 37 31 78 -2 116 l-26 31 -219 0 c-120 0 -219 3
-219 7 0 4 110 118 245 253 220 221 245 249 245 279 0 45 -46 91 -92 91 -30 0
-63 -30 -370 -338z"/>
</g>
</svg>
